<svg width="122" height="118" viewBox="0 0 122 118" fill="none" xmlns="http://www.w3.org/2000/svg">
<path d="M46.7132 43.6959L59.108 7.52181C59.7255 5.71953 62.2745 5.71953 62.892 7.52181L75.2868 43.6959C75.5639 44.5045 76.3242 45.0476 77.1789 45.0476H113.699C115.651 45.0476 116.447 47.5561 114.853 48.6815L84.9735 69.7755C84.2701 70.2721 83.9634 71.1633 84.2124 71.9876L95.4547 109.207C96.0119 111.052 93.894 112.54 92.3472 111.39L62.1929 88.9817C61.4847 88.4554 60.5153 88.4554 59.8071 88.9817L29.6528 111.39C28.106 112.54 25.9881 111.052 26.5453 109.207L37.7876 71.9876C38.0366 71.1633 37.73 70.2721 37.0265 69.7755L7.14729 48.6815C5.55319 47.5561 6.34944 45.0476 8.30076 45.0476H44.8211C45.6759 45.0476 46.4361 44.5045 46.7132 43.6959Z" stroke="#F6C137" stroke-width="12" stroke-linecap="round" stroke-linejoin="round"/>
</svg>
