<svg width="16" height="17" viewBox="0 0 16 17" fill="none" xmlns="http://www.w3.org/2000/svg">
<path d="M7.76383 1.30151C7.88394 1.14817 8.11606 1.14817 8.23617 1.30151L9.79222 3.28802C9.85699 3.37072 9.9603 3.41351 10.0646 3.40084L12.5696 3.09645C12.7629 3.07296 12.927 3.23709 12.9035 3.43045L12.5992 5.93542C12.5865 6.0397 12.6293 6.143 12.712 6.20778L14.6985 7.76383C14.8518 7.88394 14.8518 8.11606 14.6985 8.23617L12.712 9.79222C12.6293 9.85699 12.5865 9.9603 12.5992 10.0646L12.9035 12.5696C12.927 12.7629 12.7629 12.927 12.5696 12.9035L10.0646 12.5992C9.9603 12.5865 9.85699 12.6293 9.79222 12.712L8.23617 14.6985C8.11606 14.8518 7.88394 14.8518 7.76383 14.6985L6.20778 12.712C6.143 12.6293 6.0397 12.5865 5.93542 12.5992L3.43045 12.9035C3.23709 12.927 3.07296 12.7629 3.09645 12.5696L3.40084 10.0646C3.41351 9.9603 3.37072 9.85699 3.28802 9.79222L1.30151 8.23617C1.14817 8.11606 1.14817 7.88394 1.30151 7.76383L3.28802 6.20778C3.37072 6.143 3.41351 6.0397 3.40084 5.93542L3.09645 3.43045C3.07296 3.23709 3.23709 3.07296 3.43045 3.09645L5.93542 3.40084C6.0397 3.41351 6.143 3.37072 6.20778 3.28802L7.76383 1.30151Z" fill="#2F80ED"/>
<path d="M5.5 8.5L7.26316 10L10.5 6" stroke="white" stroke-linecap="round" stroke-linejoin="round"/>
</svg>
