<svg width="64" height="64" viewBox="0 0 64 64" fill="none" xmlns="http://www.w3.org/2000/svg">
<circle cx="32" cy="32" r="32" fill="white"/>
<mask id="mask0_542_3731" style="mask-type:luminance" maskUnits="userSpaceOnUse" x="7" y="27" width="31" height="15">
<path d="M32.0904 32.3197H32.094C32.094 32.3197 32.094 32.3197 32.0904 32.3197ZM32.094 32.3197C34.1067 33.3384 35.8128 34.6849 37.0888 36.1231L37.1029 31.4173L32.094 32.3162V32.3197ZM20.5392 30.8745L16.3763 28.4564L15.4387 32.9507L10.8492 32.3726L11.4132 36.4298L7 37.6141L8.51924 41.6502H8.52277C10.7822 34.7061 17.751 29.9263 25.6116 30.4973C27.9768 30.67 30.1693 31.3433 32.0904 32.3162L30.6135 28.0017L26.6233 30.6031L23.4438 27.0217L20.5463 30.878L20.5392 30.8745Z" fill="white"/>
</mask>
<g mask="url(#mask0_542_3731)">
<path d="M6.93298 26.9971L37.1028 27.0182L37.1698 41.6713L6.99996 41.6467L6.93298 26.9971Z" fill="url(#paint0_linear_542_3731)"/>
</g>
<path d="M39.7783 38.7031C38.1498 38.7313 36.7222 38.9322 35.4744 39.2424C38.9676 40.67 41.932 43.3596 43.7297 45.263H50.7444C50.7444 45.263 46.2183 41.6077 39.7783 38.7031Z" fill="#89ADD9"/>
<path d="M29.1437 42.6864C30.959 43.5711 32.302 44.4418 32.9753 44.9106C31.7838 43.9448 30.536 43.1658 29.2917 42.5383C29.2389 42.5877 29.1895 42.637 29.1437 42.6864Z" fill="#F9ED32"/>
<path d="M29.2917 42.5383C23.539 39.6408 17.8286 39.9651 17.8286 39.9651C23.4262 36.8561 29.1578 36.8349 35.1114 39.0944C35.2347 39.1402 35.3546 39.1896 35.4744 39.2389C36.7222 38.9287 38.1498 38.7278 39.7784 38.6996C36.1865 37.0817 32.0024 35.6964 27.6702 35.3086C15.5692 34.2335 8.52283 42.7321 8.52283 42.7321C16.2354 37.9241 24.3392 40.3458 29.1437 42.6863C29.193 42.637 29.2424 42.5876 29.2917 42.5383Z" fill="#8E87C0"/>
<path d="M17.8286 39.9654C17.8286 39.9654 23.3909 39.7891 29.1436 42.6866C30.2998 41.5622 32.4218 40.0006 35.4744 39.2392C35.3546 39.1899 35.2347 39.1405 35.1113 39.0947C29.1577 36.8352 23.4262 36.8564 17.8286 39.9654Z" fill="#86AFDA"/>
<path d="M43.7298 45.263C41.9321 43.3595 38.9677 40.67 35.4744 39.2424C32.4219 40.0038 30.2999 41.5654 29.1437 42.6898C30.388 43.3172 31.738 44.0222 32.9753 44.9704C33.8882 45.6719 34.7342 46.465 35.5414 47.4167H45.5839C45.5839 47.4167 44.9072 46.5073 43.7298 45.2665" fill="#7ECDD6"/>
<mask id="mask1_542_3731" style="mask-type:luminance" maskUnits="userSpaceOnUse" x="40" y="15" width="17" height="29">
<path d="M49.7926 37.7022L49.8244 37.6705L50.8008 36.6941L53.1413 34.3535V40.9099L49.7962 37.6987L49.7926 37.7022ZM48.1712 36.1089L44.8613 32.7955L48.6788 28.978L52.6232 32.9224L49.8279 35.7177L48.8515 36.6941L48.8092 36.7364L48.1782 36.1054L48.1712 36.1089ZM44.3784 24.6811L47.6988 28.0016L44.3784 31.3221V24.6811ZM49.6516 28.0016L53.1378 24.5154V31.4878L49.6516 28.0016ZM45.2032 23.5531H52.1473L48.6752 27.0252L45.2032 23.5531ZM53.9133 15.7031L53.1378 16.8064V17.7758H44.3784V16.8064L43.6029 15.7031H41.6606L40.7759 16.8064V38.6892C41.569 38.6892 43.1869 38.8866 44.3784 39.091V34.2654L47.1948 37.0818L47.8257 37.7128L45.9857 39.5528C46.4686 39.6938 46.9586 39.8524 47.4627 40.0251L48.8021 38.6857L53.3176 43.0989L56.7368 43.1271V16.8064L55.7956 15.7031H53.9098H53.9133Z" fill="white"/>
</mask>
<g mask="url(#mask1_542_3731)">
<path d="M40.7725 15.6225L40.6381 43.1272L56.7397 43.2059L56.8742 15.7012L40.7725 15.6225Z" fill="url(#paint1_linear_542_3731)"/>
</g>
<defs>
<linearGradient id="paint0_linear_542_3731" x1="89.6518" y1="34.9057" x2="125.276" y2="34.9306" gradientUnits="userSpaceOnUse">
<stop stop-color="#F99F36"/>
<stop offset="1" stop-color="#F3817D"/>
</linearGradient>
<linearGradient id="paint1_linear_542_3731" x1="48.1006" y1="14.8601" x2="47.9618" y2="43.2721" gradientUnits="userSpaceOnUse">
<stop stop-color="#F99F32"/>
<stop offset="1" stop-color="#F3817D"/>
</linearGradient>
</defs>
</svg>
