<svg width="154" height="47" viewBox="0 0 154 47" fill="none" xmlns="http://www.w3.org/2000/svg">
<g clip-path="url(#clip0_516_30)">
<path d="M83.3418 4.50821C83.2741 4.43003 83.1855 4.35185 83.076 4.2841C82.9614 4.21114 82.8363 4.14338 82.7008 4.08605C82.5601 4.02872 82.4089 3.98182 82.2421 3.94533C82.0754 3.90885 81.9034 3.89322 81.7262 3.89322C81.2623 3.89322 80.9236 3.98182 80.7099 4.15381C80.4962 4.3258 80.3867 4.56554 80.3867 4.86782C80.3867 5.02939 80.418 5.16489 80.4805 5.26913C80.5431 5.37337 80.6369 5.46718 80.7724 5.54014C80.9027 5.61832 81.0695 5.68086 81.2623 5.73819C81.4604 5.79552 81.6897 5.85285 81.9607 5.91539C82.2682 5.98315 82.5444 6.06132 82.7946 6.14471C83.0448 6.23331 83.2532 6.33755 83.4304 6.46784C83.6076 6.59814 83.7431 6.75449 83.8317 6.93691C83.9256 7.11932 83.9672 7.34864 83.9672 7.61444C83.9672 7.90109 83.9099 8.14604 83.8005 8.35452C83.6858 8.56299 83.5347 8.73498 83.3418 8.87569C83.149 9.0112 82.9197 9.11023 82.6591 9.17798C82.3985 9.24052 82.1118 9.27179 81.8044 9.27179C81.3457 9.27179 80.9131 9.19883 80.5014 9.05811C80.0897 8.91739 79.7196 8.70892 79.3809 8.43269L79.7405 7.79685C79.8291 7.89067 79.9437 7.98969 80.0897 8.0835C80.2304 8.17731 80.392 8.26591 80.5744 8.33888C80.7568 8.41706 80.9496 8.47439 81.1633 8.52129C81.3718 8.5682 81.5907 8.59426 81.82 8.59426C82.2421 8.59426 82.5757 8.51608 82.8102 8.37015C83.0448 8.21901 83.1646 7.9949 83.1646 7.69262C83.1646 7.52584 83.1281 7.38512 83.05 7.27046C82.9718 7.1558 82.8623 7.05678 82.7164 6.97339C82.5705 6.89 82.3933 6.81703 82.1744 6.74928C81.9607 6.68674 81.7157 6.61899 81.4395 6.55123C81.1372 6.47827 80.8714 6.40009 80.6421 6.3167C80.4128 6.23331 80.22 6.13429 80.0688 6.01442C79.9177 5.89455 79.7978 5.75383 79.7196 5.58705C79.6415 5.42027 79.5998 5.21701 79.5998 4.98248C79.5998 4.69583 79.6519 4.44567 79.7613 4.22677C79.8656 4.00788 80.0167 3.82546 80.2043 3.67432C80.3919 3.52318 80.6213 3.40852 80.8819 3.33555C81.1424 3.26259 81.4291 3.22089 81.7366 3.22089C82.1379 3.22089 82.5027 3.28344 82.8259 3.40331C83.149 3.52839 83.4356 3.68996 83.691 3.89843L83.3366 4.50821H83.3418Z" fill="#999999"/>
<path d="M87.6365 9.29785C87.428 9.29785 87.2352 9.26136 87.058 9.19361C86.8808 9.12586 86.7244 9.02683 86.5941 8.90175C86.4638 8.77667 86.3596 8.63595 86.2814 8.46917C86.2084 8.30239 86.1667 8.12519 86.1667 7.92714C86.1667 7.72909 86.2137 7.54147 86.3023 7.3799C86.3909 7.21313 86.5159 7.07241 86.6827 6.95775C86.8495 6.83788 87.0423 6.74928 87.2716 6.68152C87.4958 6.61377 87.7459 6.5825 88.0117 6.5825C88.2254 6.5825 88.4391 6.60335 88.658 6.63983C88.8769 6.68152 89.0697 6.73364 89.2365 6.79618V6.44699C89.2365 6.08738 89.1375 5.81115 88.9342 5.60268C88.731 5.39942 88.4495 5.29518 88.0795 5.29518C87.6365 5.29518 87.1726 5.46717 86.6879 5.80594L86.443 5.32646C87.0058 4.94599 87.5739 4.75837 88.1472 4.75837C88.7205 4.75837 89.174 4.91472 89.4919 5.21701C89.815 5.5245 89.9766 5.95708 89.9766 6.51996V8.3076C89.9766 8.47959 90.0547 8.56819 90.2111 8.57862V9.21446C90.1329 9.22488 90.0704 9.2353 90.0183 9.24052C89.9661 9.24573 89.914 9.25094 89.8619 9.25094C89.716 9.25094 89.6013 9.20925 89.5127 9.12064C89.4241 9.03204 89.372 8.92781 89.3564 8.80794L89.3407 8.49523C89.1427 8.76103 88.8977 8.95908 88.6007 9.09459C88.3036 9.23009 87.9805 9.29785 87.6417 9.29785M87.8345 8.7454C88.0951 8.7454 88.3401 8.69849 88.5694 8.59946C88.7987 8.50044 88.9707 8.37015 89.0854 8.20858C89.1896 8.10434 89.2469 7.9949 89.2469 7.88024V7.23397C88.8873 7.09326 88.5173 7.0255 88.1316 7.0255C87.7459 7.0255 87.4645 7.10368 87.23 7.26003C87.0006 7.41639 86.8808 7.61965 86.8808 7.86981C86.8808 7.9949 86.9068 8.10956 86.9537 8.21379C87.0006 8.31803 87.0684 8.41184 87.157 8.49002C87.2456 8.56819 87.3446 8.63074 87.4645 8.67243C87.5844 8.71934 87.7094 8.74018 87.8397 8.74018" fill="#999999"/>
<path d="M92.5408 7.01508C92.5408 6.70759 92.5929 6.41573 92.7023 6.14471C92.8066 5.8737 92.9577 5.63396 93.1558 5.4307C93.3538 5.22744 93.5831 5.06587 93.8541 4.946C94.1252 4.82613 94.4274 4.76359 94.7662 4.76359C95.204 4.76359 95.5793 4.8574 95.892 5.05545C96.2099 5.24828 96.4444 5.50887 96.6112 5.83201L95.892 6.06133C95.7773 5.85285 95.6209 5.69129 95.4229 5.57663C95.2196 5.46197 95.0007 5.40464 94.7506 5.40464C94.5473 5.40464 94.3597 5.44633 94.1825 5.52451C94.0053 5.6079 93.8489 5.71735 93.7239 5.86328C93.5936 6.00921 93.4945 6.1812 93.4164 6.37403C93.3382 6.57208 93.3017 6.78577 93.3017 7.0203C93.3017 7.25483 93.3434 7.4633 93.4216 7.66656C93.4997 7.86982 93.604 8.04181 93.7343 8.19295C93.8646 8.33888 94.0209 8.45875 94.1929 8.54214C94.3649 8.62553 94.5577 8.66722 94.761 8.66722C94.8913 8.66722 95.0164 8.65159 95.1415 8.61511C95.2665 8.57862 95.3812 8.53172 95.4854 8.46918C95.5897 8.40664 95.6783 8.33888 95.7565 8.25549C95.8346 8.1721 95.892 8.08872 95.9232 7.98969L96.6425 8.20859C96.5747 8.37015 96.4809 8.52129 96.361 8.65159C96.2411 8.7871 96.1004 8.90176 95.9389 8.99557C95.7773 9.08938 95.5949 9.16756 95.3968 9.22489C95.1988 9.28222 94.9903 9.30828 94.7714 9.30828C94.4431 9.30828 94.1408 9.24573 93.8646 9.12586C93.5936 9.00078 93.3538 8.83921 93.161 8.63074C92.9681 8.42227 92.8118 8.18253 92.7023 7.9063C92.5929 7.63008 92.5408 7.33822 92.5408 7.03072" fill="#999999"/>
<path d="M101.469 5.48282C101.099 5.49324 100.775 5.59226 100.494 5.76946C100.213 5.94667 100.009 6.19683 99.8946 6.51475V9.21446H99.1545V4.83655H99.8425V5.85285C99.9936 5.55057 100.192 5.30561 100.437 5.11799C100.682 4.93037 100.947 4.82613 101.224 4.80528H101.364C101.406 4.80528 101.437 4.80528 101.463 4.81571V5.48803L101.469 5.48282Z" fill="#999999"/>
<path d="M104.997 9.29785C104.788 9.29785 104.596 9.26136 104.418 9.19361C104.241 9.12586 104.085 9.02683 103.954 8.90175C103.824 8.77667 103.72 8.63595 103.642 8.46917C103.569 8.30239 103.527 8.12519 103.527 7.92714C103.527 7.72909 103.574 7.54147 103.663 7.3799C103.751 7.21313 103.876 7.07241 104.043 6.95775C104.21 6.83788 104.403 6.74928 104.632 6.68152C104.856 6.61377 105.106 6.5825 105.372 6.5825C105.586 6.5825 105.799 6.60335 106.018 6.63983C106.237 6.68152 106.43 6.73364 106.597 6.79618V6.44699C106.597 6.08738 106.498 5.81115 106.295 5.60268C106.091 5.39942 105.81 5.29518 105.44 5.29518C104.997 5.29518 104.533 5.46717 104.048 5.80594L103.803 5.32646C104.366 4.94599 104.934 4.75837 105.508 4.75837C106.081 4.75837 106.534 4.91472 106.852 5.21701C107.175 5.5245 107.337 5.95708 107.337 6.51996V8.3076C107.337 8.47959 107.415 8.56819 107.571 8.57862V9.21446C107.493 9.22488 107.431 9.2353 107.379 9.24052C107.326 9.24573 107.274 9.25094 107.222 9.25094C107.076 9.25094 106.962 9.20925 106.873 9.12064C106.784 9.03204 106.732 8.92781 106.717 8.80794L106.701 8.49523C106.503 8.76103 106.258 8.95908 105.961 9.09459C105.664 9.23009 105.341 9.29785 105.002 9.29785M105.195 8.7454C105.455 8.7454 105.7 8.69849 105.93 8.59946C106.159 8.50044 106.331 8.37015 106.446 8.20858C106.55 8.10434 106.607 7.9949 106.607 7.88024V7.23397C106.248 7.09326 105.878 7.0255 105.492 7.0255C105.106 7.0255 104.825 7.10368 104.59 7.26003C104.361 7.41639 104.241 7.61965 104.241 7.86981C104.241 7.9949 104.267 8.10956 104.314 8.21379C104.361 8.31803 104.429 8.41184 104.517 8.49002C104.606 8.56819 104.705 8.63074 104.825 8.67243C104.945 8.71934 105.07 8.74018 105.2 8.74018" fill="#999999"/>
<path d="M116.791 9.21446H116.051V6.76491C116.051 6.30627 115.978 5.96751 115.827 5.74861C115.681 5.52972 115.457 5.42027 115.17 5.42027C114.884 5.42027 114.597 5.52972 114.363 5.7434C114.128 5.95708 113.956 6.23852 113.857 6.57729V9.20925H113.117V6.7597C113.117 6.29064 113.044 5.94666 112.898 5.73819C112.752 5.5245 112.533 5.42027 112.247 5.42027C111.96 5.42027 111.684 5.5245 111.439 5.73298C111.199 5.94145 111.027 6.22289 110.928 6.56686V9.20925H110.188V4.83655H110.86V5.77467C111.038 5.45154 111.272 5.20137 111.559 5.02417C111.845 4.84697 112.163 4.75837 112.523 4.75837C112.882 4.75837 113.185 4.85739 113.398 5.05544C113.612 5.25349 113.748 5.50887 113.8 5.82158C114.191 5.11277 114.748 4.75837 115.468 4.75837C115.718 4.75837 115.931 4.80528 116.098 4.89909C116.27 4.9929 116.406 5.11798 116.505 5.28476C116.604 5.45154 116.677 5.64438 116.724 5.86848C116.77 6.09259 116.791 6.33233 116.791 6.59813V9.21446Z" fill="#999999"/>
<path d="M121.555 9.29785C121.226 9.29785 120.924 9.24052 120.648 9.12065C120.377 9.00078 120.137 8.83921 119.944 8.63074C119.751 8.42227 119.595 8.18253 119.486 7.9063C119.376 7.63008 119.324 7.33822 119.324 7.03072C119.324 6.72322 119.381 6.43136 119.486 6.16035C119.595 5.88412 119.746 5.64438 119.944 5.44112C120.142 5.23265 120.377 5.07108 120.653 4.95121C120.929 4.83134 121.226 4.7688 121.56 4.7688C121.893 4.7688 122.19 4.83134 122.461 4.95642C122.732 5.08151 122.962 5.24307 123.155 5.44633C123.347 5.64959 123.493 5.88934 123.592 6.16035C123.697 6.43136 123.749 6.7128 123.749 7.00466C123.749 7.0672 123.749 7.12453 123.749 7.17144C123.749 7.22356 123.744 7.26004 123.738 7.29131H120.111C120.127 7.51021 120.179 7.70825 120.262 7.88545C120.345 8.06266 120.455 8.21901 120.59 8.34409C120.726 8.47439 120.877 8.57341 121.049 8.64638C121.221 8.71934 121.398 8.75582 121.591 8.75582C121.727 8.75582 121.857 8.73498 121.987 8.6985C122.117 8.66201 122.237 8.61511 122.347 8.55256C122.456 8.49002 122.555 8.41706 122.644 8.32325C122.732 8.23465 122.795 8.13562 122.842 8.02096L123.478 8.19816C123.405 8.35973 123.306 8.50566 123.181 8.64117C123.056 8.77667 122.91 8.89133 122.743 8.99036C122.576 9.08938 122.394 9.16756 122.196 9.21968C121.992 9.27701 121.784 9.30306 121.565 9.30306M123.066 6.73886C123.05 6.53039 122.998 6.34276 122.91 6.16556C122.821 5.98836 122.712 5.84243 122.581 5.71735C122.451 5.59226 122.3 5.49845 122.123 5.42549C121.951 5.35773 121.763 5.32125 121.57 5.32125C121.377 5.32125 121.19 5.35773 121.018 5.42549C120.846 5.49324 120.689 5.59226 120.559 5.71735C120.429 5.84243 120.319 5.99357 120.241 6.16556C120.158 6.33755 120.111 6.53039 120.095 6.73365H123.061L123.066 6.73886Z" fill="#999999"/>
<path d="M130.05 9.21446H129.31V6.76491C129.31 6.29585 129.237 5.95187 129.096 5.7434C128.955 5.52972 128.737 5.42548 128.445 5.42548C128.294 5.42548 128.142 5.45675 127.991 5.51408C127.84 5.57141 127.699 5.6548 127.564 5.75382C127.428 5.85285 127.314 5.97272 127.21 6.11344C127.111 6.25416 127.032 6.4053 126.985 6.57208V9.21446H126.245V4.83655H126.918V5.77467C127.09 5.46717 127.34 5.22222 127.668 5.03459C127.997 4.85218 128.351 4.75837 128.737 4.75837C128.987 4.75837 129.195 4.80528 129.367 4.89909C129.534 4.9929 129.67 5.11798 129.769 5.28476C129.868 5.45154 129.941 5.64438 129.982 5.86848C130.024 6.09259 130.045 6.33233 130.045 6.59813V9.21446H130.05Z" fill="#999999"/>
<path d="M135.095 8.99557C135.048 9.01642 134.991 9.04248 134.918 9.07375C134.845 9.10502 134.762 9.13629 134.673 9.16756C134.579 9.19883 134.48 9.22489 134.371 9.24574C134.261 9.26658 134.147 9.27701 134.032 9.27701C133.761 9.27701 133.532 9.20404 133.334 9.0529C133.135 8.90176 133.042 8.67244 133.042 8.35973V5.41506H132.448V4.83655H133.042V3.37725H133.782V4.83655H134.762V5.41506H133.782V8.13041C133.792 8.29198 133.844 8.41185 133.943 8.48481C134.037 8.55778 134.152 8.59426 134.277 8.59426C134.423 8.59426 134.553 8.5682 134.673 8.5213C134.793 8.47439 134.876 8.43791 134.918 8.40664L135.095 8.99557Z" fill="#999999"/>
<path d="M139.311 9.29785C138.983 9.29785 138.681 9.2353 138.41 9.11543C138.139 8.99035 137.909 8.82878 137.711 8.62031C137.519 8.41184 137.367 8.1721 137.263 7.89587C137.159 7.62486 137.102 7.333 137.102 7.03071C137.102 6.72843 137.154 6.43136 137.263 6.16034C137.373 5.88412 137.524 5.64437 137.717 5.44111C137.909 5.23264 138.144 5.07108 138.415 4.94599C138.686 4.82091 138.983 4.75837 139.306 4.75837C139.629 4.75837 139.932 4.82091 140.203 4.94599C140.479 5.07108 140.708 5.23264 140.901 5.44111C141.094 5.64959 141.245 5.88933 141.354 6.16034C141.464 6.43136 141.516 6.72322 141.516 7.03071C141.516 7.33821 141.464 7.61965 141.354 7.89587C141.25 8.1721 141.099 8.41184 140.901 8.62031C140.703 8.82878 140.474 8.99035 140.203 9.11543C139.932 9.2353 139.629 9.29785 139.301 9.29785M137.852 7.04114C137.852 7.27046 137.889 7.48414 137.967 7.67698C138.045 7.87502 138.144 8.0418 138.279 8.18773C138.41 8.33366 138.566 8.44832 138.738 8.53171C138.915 8.6151 139.103 8.6568 139.301 8.6568C139.499 8.6568 139.692 8.6151 139.869 8.53171C140.046 8.44832 140.203 8.33366 140.333 8.18252C140.468 8.03138 140.573 7.85939 140.646 7.66134C140.724 7.46329 140.76 7.24961 140.76 7.02029C140.76 6.79097 140.724 6.58771 140.646 6.38966C140.573 6.19161 140.463 6.01962 140.333 5.86848C140.197 5.72255 140.041 5.60268 139.869 5.51929C139.697 5.4359 139.504 5.39421 139.301 5.39421C139.098 5.39421 138.91 5.4359 138.738 5.5245C138.561 5.6131 138.41 5.72776 138.279 5.87369C138.149 6.02484 138.045 6.19683 137.967 6.39487C137.889 6.59292 137.852 6.80661 137.852 7.03593" fill="#999999"/>
<path d="M79.4172 19.7006C79.4172 19.0908 79.5267 18.4915 79.7456 17.8973C79.9645 17.3032 80.2876 16.7716 80.7046 16.3077C81.1267 15.8387 81.6375 15.4634 82.2472 15.1715C82.857 14.8849 83.545 14.739 84.3215 14.739C85.2388 14.739 86.031 14.9422 86.6981 15.3435C87.3652 15.7448 87.8656 16.2712 88.1887 16.9123L86.7033 17.9338C86.573 17.6524 86.4115 17.4178 86.2239 17.225C86.0362 17.0322 85.8382 16.881 85.6193 16.7716C85.4056 16.6569 85.1815 16.5787 84.947 16.5266C84.7124 16.4745 84.4831 16.4484 84.259 16.4484C83.7743 16.4484 83.3469 16.5475 82.9873 16.7455C82.6277 16.9436 82.3306 17.1989 82.0909 17.5116C81.8512 17.8244 81.674 18.1788 81.5489 18.5749C81.429 18.9709 81.3665 19.367 81.3665 19.7579C81.3665 20.1957 81.4342 20.6179 81.5749 21.0296C81.7156 21.4361 81.9137 21.7957 82.1691 22.1032C82.4245 22.4107 82.7319 22.6609 83.0968 22.8433C83.4564 23.0309 83.8525 23.1248 84.2799 23.1248C84.504 23.1248 84.7385 23.0987 84.9834 23.0414C85.2284 22.984 85.4577 22.8954 85.6766 22.7756C85.8955 22.6557 86.0988 22.4993 86.2864 22.3065C86.474 22.1137 86.6252 21.8843 86.7346 21.6133L88.319 22.5254C88.1626 22.9006 87.9333 23.229 87.6415 23.5156C87.3444 23.8023 87.016 24.042 86.646 24.2401C86.276 24.4381 85.8799 24.5841 85.4629 24.6883C85.0408 24.7925 84.629 24.8446 84.2277 24.8446C83.5189 24.8446 82.8675 24.6935 82.2785 24.3964C81.6896 24.0994 81.184 23.7085 80.7567 23.2238C80.3293 22.7391 80.001 22.1971 79.7612 21.5821C79.5215 20.9723 79.4016 20.3469 79.4016 19.711" fill="#87A7D5"/>
<path d="M90.5759 14.5149H92.4574V16.3807H90.5759V14.5149ZM90.5759 17.4022H92.4574V24.7508H90.5759V17.4022Z" fill="#87A7D5"/>
<path d="M99.6757 24.3704C99.4255 24.485 99.1128 24.5945 98.748 24.7091C98.3831 24.8238 98.0027 24.8759 97.5961 24.8759C97.3356 24.8759 97.0906 24.8446 96.8613 24.7769C96.632 24.7143 96.4339 24.6049 96.2567 24.4642C96.0795 24.3235 95.944 24.1306 95.845 23.9013C95.7407 23.672 95.6886 23.3958 95.6886 23.0674V18.8459H94.7192V17.4022H95.6886V15.0204H97.5701V17.4022H99.1128V18.8459H97.5701V22.4368C97.5701 22.6974 97.6378 22.885 97.7734 22.9892C97.9089 23.0935 98.0756 23.1508 98.2685 23.1508C98.4613 23.1508 98.6541 23.1195 98.8418 23.0518C99.0294 22.9892 99.1805 22.9319 99.29 22.885L99.6704 24.3704H99.6757Z" fill="#87A7D5"/>
<path d="M101.932 26.1789C102.089 26.2258 102.245 26.2622 102.396 26.2831C102.547 26.3092 102.672 26.3196 102.777 26.3196C102.897 26.3196 103.011 26.2987 103.115 26.2518C103.22 26.2049 103.314 26.1215 103.397 26.0069C103.48 25.887 103.564 25.7306 103.652 25.5222C103.741 25.3137 103.824 25.0583 103.918 24.7508L101.015 17.4022H102.949L104.94 23.1247L106.706 17.4022H108.473L105.388 26.2049C105.211 26.7209 104.908 27.1378 104.476 27.4662C104.048 27.7945 103.512 27.9561 102.876 27.9561C102.725 27.9561 102.573 27.9457 102.422 27.9196C102.266 27.8935 102.104 27.8571 101.938 27.7997V26.1736L101.932 26.1789Z" fill="#87A7D5"/>
<path d="M116.656 24.8863C116.103 24.8863 115.603 24.7821 115.149 24.5788C114.696 24.3756 114.31 24.0994 113.987 23.7502C113.664 23.4062 113.414 23.0049 113.237 22.5462C113.06 22.0876 112.971 21.6081 112.971 21.1026C112.971 20.597 113.06 20.1019 113.247 19.6433C113.43 19.1846 113.68 18.7833 114.003 18.4393C114.326 18.0954 114.712 17.8191 115.165 17.6107C115.619 17.4074 116.114 17.3032 116.661 17.3032C117.208 17.3032 117.703 17.4074 118.162 17.6107C118.621 17.8139 119.011 18.0902 119.335 18.4393C119.658 18.7833 119.908 19.1846 120.09 19.6433C120.273 20.1019 120.361 20.5866 120.361 21.1026C120.361 21.6185 120.273 22.0876 120.095 22.5462C119.918 23.0049 119.663 23.4062 119.34 23.7502C119.011 24.0941 118.621 24.3704 118.167 24.5788C117.714 24.7821 117.213 24.8863 116.661 24.8863M114.232 21.113C114.232 21.4987 114.295 21.8531 114.42 22.1762C114.545 22.5045 114.717 22.786 114.941 23.0309C115.16 23.2759 115.415 23.4635 115.712 23.6042C116.009 23.745 116.322 23.8127 116.661 23.8127C117 23.8127 117.312 23.745 117.609 23.6042C117.901 23.4635 118.162 23.2707 118.386 23.0205C118.61 22.7756 118.787 22.4837 118.912 22.1501C119.037 21.8166 119.1 21.4622 119.1 21.0765C119.1 20.6908 119.037 20.3469 118.912 20.0185C118.787 19.685 118.61 19.3983 118.386 19.1481C118.162 18.9032 117.901 18.7051 117.609 18.5644C117.312 18.4237 117 18.356 116.661 18.356C116.322 18.356 116.009 18.4289 115.712 18.5748C115.415 18.7208 115.16 18.9136 114.941 19.1638C114.722 19.4139 114.55 19.7006 114.42 20.0342C114.295 20.3677 114.232 20.7221 114.232 21.1078" fill="#87A7D5"/>
<path d="M122.686 24.7456V18.3924H121.69V17.423H122.686V17.2667C122.686 16.3598 122.884 15.651 123.29 15.1351C123.692 14.6191 124.239 14.3637 124.932 14.3637C125.224 14.3637 125.505 14.4054 125.787 14.4836C126.068 14.5618 126.318 14.6712 126.542 14.8119L126.235 15.724C126.105 15.6302 125.943 15.5572 125.75 15.4999C125.557 15.4426 125.37 15.4165 125.182 15.4165C124.77 15.4165 124.458 15.5729 124.244 15.8803C124.03 16.1878 123.921 16.6361 123.921 17.225V17.423H125.87V18.3924H123.921V24.7456H122.686Z" fill="#87A7D5"/>
<path d="M86.9327 38.4996C86.1353 39.297 85.2128 39.6931 84.1548 39.6931C83.4982 39.6931 82.8832 39.5628 82.3099 39.3022C81.7366 39.0416 81.2362 38.682 80.8089 38.2233C80.3815 37.7647 80.0479 37.2279 79.7978 36.6025C79.5528 35.9823 79.4277 35.3099 79.4277 34.5907C79.4277 33.908 79.5528 33.2669 79.7978 32.6623C80.0479 32.0578 80.3867 31.5314 80.8245 31.078C81.2571 30.6245 81.773 30.2649 82.3568 29.9991C82.9457 29.7333 83.5868 29.5978 84.2799 29.5978C85.2128 29.5978 86.0155 29.7958 86.6826 30.1867C87.3497 30.5776 87.8552 31.1092 88.1888 31.7711L86.7451 32.8343C86.4949 32.3392 86.1405 31.9587 85.6871 31.6982C85.2337 31.4376 84.7386 31.3073 84.207 31.3073C83.7848 31.3073 83.3991 31.3959 83.0499 31.5731C82.7008 31.7503 82.3985 31.9952 82.1535 32.3027C81.9086 32.6102 81.7157 32.9646 81.5802 33.3711C81.4447 33.7725 81.3769 34.1998 81.3769 34.648C81.3769 35.0963 81.4499 35.5549 81.6011 35.9562C81.7522 36.3627 81.9555 36.7171 82.216 37.0142C82.4766 37.3165 82.7893 37.551 83.149 37.723C83.5086 37.895 83.8995 37.9836 84.3216 37.9836C85.2858 37.9836 86.151 37.5302 86.9275 36.6233V35.9249H84.921V34.5073H88.5223V39.6253H86.9223V38.5048L86.9327 38.4996Z" fill="#87A7D5"/>
<path d="M94.5159 39.7608C93.9166 39.7608 93.3797 39.6566 92.9055 39.4533C92.426 39.2501 92.0247 38.9686 91.6911 38.6194C91.3576 38.2702 91.1022 37.8637 90.925 37.4051C90.7478 36.9464 90.6592 36.467 90.6592 35.9614C90.6592 35.4559 90.7478 34.9607 90.925 34.5021C91.1022 34.0435 91.3576 33.6422 91.6911 33.2878C92.0247 32.9334 92.426 32.6571 92.9055 32.4539C93.3797 32.2506 93.9218 32.1464 94.5159 32.1464C95.1101 32.1464 95.6521 32.2506 96.1211 32.4539C96.5954 32.6623 96.9967 32.9386 97.3251 33.2878C97.6586 33.637 97.914 34.0435 98.0912 34.5021C98.2684 34.9607 98.357 35.4454 98.357 35.9614C98.357 36.4774 98.2684 36.9464 98.0912 37.4051C97.914 37.8637 97.6638 38.265 97.3355 38.6194C97.0071 38.9686 96.6058 39.2501 96.1316 39.4533C95.6521 39.6566 95.1153 39.7608 94.5211 39.7608M92.598 35.9614C92.598 36.2898 92.6449 36.5868 92.7439 36.8526C92.8429 37.1184 92.9784 37.353 93.1504 37.5458C93.3224 37.7438 93.5257 37.895 93.7602 37.9992C93.9947 38.1087 94.2449 38.1608 94.5159 38.1608C94.7869 38.1608 95.0371 38.1087 95.2716 37.9992C95.5062 37.8898 95.7094 37.7386 95.8814 37.5458C96.0534 37.3478 96.1889 37.1184 96.2879 36.8422C96.3869 36.5712 96.4339 36.2741 96.4339 35.9458C96.4339 35.6174 96.3817 35.336 96.2879 35.065C96.1889 34.794 96.0534 34.5594 95.8814 34.3614C95.7094 34.1633 95.5062 34.0122 95.2716 33.908C95.0371 33.7985 94.7869 33.7464 94.5159 33.7464C94.2449 33.7464 93.9947 33.8037 93.7602 33.9132C93.5257 34.0278 93.3224 34.179 93.1504 34.377C92.9784 34.5751 92.8429 34.8044 92.7439 35.0754C92.6449 35.3464 92.598 35.6435 92.598 35.9614Z" fill="#87A7D5"/>
<path d="M104.132 39.7608C103.532 39.7608 102.995 39.6566 102.521 39.4533C102.042 39.2501 101.64 38.9686 101.307 38.6194C100.973 38.2702 100.718 37.8637 100.541 37.4051C100.364 36.9464 100.275 36.467 100.275 35.9614C100.275 35.4559 100.364 34.9607 100.541 34.5021C100.718 34.0435 100.973 33.6422 101.307 33.2878C101.64 32.9334 102.042 32.6571 102.521 32.4539C102.995 32.2506 103.537 32.1464 104.132 32.1464C104.726 32.1464 105.268 32.2506 105.737 32.4539C106.211 32.6623 106.612 32.9386 106.941 33.2878C107.274 33.637 107.53 34.0435 107.707 34.5021C107.884 34.9607 107.973 35.4454 107.973 35.9614C107.973 36.4774 107.884 36.9464 107.707 37.4051C107.53 37.8637 107.28 38.265 106.951 38.6194C106.623 38.9686 106.222 39.2501 105.747 39.4533C105.268 39.6566 104.731 39.7608 104.137 39.7608M102.214 35.9614C102.214 36.2898 102.261 36.5868 102.36 36.8526C102.459 37.1184 102.594 37.353 102.766 37.5458C102.938 37.7438 103.141 37.895 103.376 37.9992C103.61 38.1087 103.861 38.1608 104.132 38.1608C104.403 38.1608 104.653 38.1087 104.887 37.9992C105.122 37.8898 105.325 37.7386 105.497 37.5458C105.669 37.3478 105.805 37.1184 105.904 36.8422C106.003 36.5712 106.05 36.2741 106.05 35.9458C106.05 35.6174 105.997 35.336 105.904 35.065C105.805 34.794 105.669 34.5594 105.497 34.3614C105.325 34.1633 105.122 34.0122 104.887 33.908C104.653 33.7985 104.403 33.7464 104.132 33.7464C103.861 33.7464 103.61 33.8037 103.376 33.9132C103.141 34.0278 102.938 34.179 102.766 34.377C102.594 34.5751 102.459 34.8044 102.36 35.0754C102.261 35.3464 102.214 35.6435 102.214 35.9614Z" fill="#87A7D5"/>
<path d="M113.404 39.7608C112.898 39.7608 112.429 39.6618 112.002 39.4637C111.569 39.2657 111.199 38.9947 110.892 38.6507C110.584 38.3067 110.339 37.9002 110.167 37.4363C109.995 36.9725 109.906 36.4774 109.906 35.9406C109.906 35.4037 109.99 34.9138 110.151 34.4552C110.313 33.9966 110.542 33.5953 110.829 33.2513C111.121 32.9073 111.465 32.6363 111.866 32.4382C112.267 32.2402 112.705 32.1412 113.185 32.1412C113.727 32.1412 114.217 32.2715 114.649 32.532C115.087 32.7926 115.426 33.1366 115.666 33.5536V29.3737H117.542V37.4468C117.542 37.6448 117.573 37.7855 117.641 37.8689C117.703 37.9523 117.818 37.9992 117.98 38.0096V39.6097C117.651 39.6774 117.385 39.7087 117.182 39.7087C116.843 39.7087 116.572 39.6253 116.353 39.4533C116.14 39.2865 116.015 39.0676 115.989 38.7914L115.947 38.3276C115.676 38.7966 115.311 39.1458 114.847 39.3856C114.383 39.6253 113.899 39.7452 113.398 39.7452M113.888 38.1452C114.066 38.1452 114.248 38.1139 114.436 38.0513C114.623 37.994 114.795 37.9054 114.957 37.7907C115.118 37.6761 115.259 37.5458 115.384 37.3999C115.509 37.2487 115.608 37.0872 115.671 36.91V35.1588C115.598 34.9555 115.488 34.7627 115.358 34.5907C115.223 34.4187 115.066 34.2676 114.894 34.1425C114.722 34.0174 114.54 33.9132 114.347 33.8402C114.154 33.7672 113.966 33.7255 113.779 33.7255C113.497 33.7255 113.237 33.7881 113.002 33.908C112.763 34.0278 112.559 34.1946 112.393 34.4083C112.226 34.6168 112.095 34.8617 112.002 35.1327C111.908 35.4037 111.861 35.6852 111.861 35.9718C111.861 36.2793 111.913 36.566 112.017 36.8266C112.122 37.0872 112.262 37.3165 112.439 37.5145C112.617 37.7126 112.83 37.8637 113.075 37.9784C113.32 38.093 113.596 38.1452 113.894 38.1452" fill="#87A7D5"/>
<path d="M127.35 39.6201H125.469V35.4976C125.469 34.9086 125.365 34.476 125.161 34.205C124.958 33.934 124.672 33.7985 124.307 33.7985C124.119 33.7985 123.926 33.835 123.733 33.908C123.535 33.9809 123.353 34.0904 123.181 34.2259C123.009 34.3614 122.853 34.523 122.712 34.7106C122.571 34.8982 122.467 35.1015 122.404 35.3256V39.6149H120.523V32.2662H122.222V33.6265C122.493 33.1575 122.884 32.7926 123.4 32.532C123.916 32.2715 124.494 32.1412 125.141 32.1412C125.599 32.1412 125.974 32.2245 126.261 32.3965C126.553 32.5633 126.777 32.7822 126.933 33.0532C127.09 33.3242 127.204 33.6317 127.262 33.9757C127.324 34.3197 127.356 34.6741 127.356 35.0285V39.6149L127.35 39.6201Z" fill="#87A7D5"/>
<path d="M133.521 39.7608C132.932 39.7608 132.401 39.6618 131.921 39.4585C131.447 39.2605 131.035 38.9842 130.702 38.6403C130.368 38.2963 130.107 37.895 129.925 37.4363C129.743 36.9777 129.654 36.4982 129.654 35.9927C129.654 35.4871 129.743 34.9764 129.92 34.5125C130.097 34.0487 130.352 33.6422 130.691 33.293C131.03 32.9438 131.436 32.6623 131.916 32.4591C132.395 32.2558 132.937 32.1516 133.537 32.1516C134.136 32.1516 134.668 32.2558 135.142 32.4591C135.616 32.6623 136.018 32.9386 136.346 33.2878C136.68 33.6317 136.93 34.0383 137.102 34.4917C137.274 34.9503 137.362 35.4246 137.362 35.9197C137.362 36.0396 137.362 36.1595 137.357 36.2689C137.352 36.3783 137.341 36.4722 137.321 36.5503H131.64C131.666 36.8422 131.739 37.0976 131.848 37.3217C131.963 37.5458 132.104 37.7386 132.281 37.895C132.458 38.0565 132.661 38.1764 132.885 38.2598C133.109 38.3432 133.344 38.3849 133.584 38.3849C133.959 38.3849 134.313 38.2911 134.642 38.1087C134.975 37.9263 135.199 37.6865 135.319 37.3894L136.93 37.8377C136.659 38.4005 136.226 38.8592 135.632 39.2188C135.038 39.5784 134.329 39.7556 133.506 39.7556M135.413 35.3256C135.366 34.7731 135.163 34.3301 134.803 34.0018C134.444 33.6682 134.006 33.5066 133.49 33.5066C133.235 33.5066 133 33.5483 132.781 33.6369C132.562 33.7255 132.369 33.8506 132.197 34.007C132.031 34.1685 131.89 34.3562 131.786 34.5803C131.676 34.8044 131.614 35.0546 131.598 35.3204H135.413V35.3256Z" fill="#87A7D5"/>
<path d="M142.412 39.7608C141.797 39.7608 141.193 39.6618 140.604 39.4637C140.015 39.2657 139.509 38.9895 139.093 38.6246L139.791 37.4468C140.239 37.7647 140.677 38.0044 141.104 38.1712C141.532 38.338 141.954 38.4162 142.376 38.4162C142.751 38.4162 143.043 38.3484 143.257 38.2077C143.47 38.067 143.58 37.8637 143.58 37.6031C143.58 37.3425 143.455 37.1497 143.199 37.0298C142.949 36.91 142.538 36.7692 141.964 36.6077C141.485 36.4774 141.083 36.3523 140.745 36.2272C140.406 36.1073 140.135 35.9666 139.932 35.8155C139.723 35.6591 139.577 35.4819 139.483 35.2839C139.39 35.0806 139.343 34.8409 139.343 34.5594C139.343 34.1842 139.416 33.8506 139.562 33.5483C139.708 33.2513 139.911 32.9959 140.171 32.7822C140.432 32.5737 140.739 32.4122 141.089 32.2975C141.438 32.1829 141.818 32.1307 142.23 32.1307C142.782 32.1307 143.298 32.2089 143.778 32.3705C144.257 32.5268 144.7 32.7874 145.102 33.1418L144.346 34.278C143.971 33.9966 143.611 33.7933 143.257 33.6578C142.908 33.5275 142.558 33.4597 142.214 33.4597C141.896 33.4597 141.631 33.5223 141.412 33.6578C141.198 33.7881 141.089 34.0018 141.089 34.2884C141.089 34.4187 141.115 34.5282 141.167 34.6116C141.219 34.6949 141.302 34.7731 141.412 34.8357C141.526 34.9034 141.672 34.966 141.855 35.0233C142.037 35.0858 142.261 35.1484 142.532 35.2109C143.038 35.3412 143.47 35.4715 143.83 35.6018C144.19 35.7321 144.487 35.8832 144.716 36.05C144.945 36.2168 145.112 36.4148 145.222 36.6337C145.326 36.8526 145.383 37.1184 145.383 37.4259C145.383 38.1452 145.117 38.7132 144.586 39.1302C144.054 39.5471 143.33 39.7556 142.412 39.7556" fill="#87A7D5"/>
<path d="M150.501 39.7608C149.886 39.7608 149.282 39.6618 148.693 39.4637C148.104 39.2657 147.598 38.9895 147.181 38.6246L147.88 37.4468C148.328 37.7647 148.766 38.0044 149.193 38.1712C149.62 38.338 150.042 38.4162 150.465 38.4162C150.84 38.4162 151.132 38.3484 151.345 38.2077C151.559 38.067 151.669 37.8637 151.669 37.6031C151.669 37.3425 151.543 37.1497 151.288 37.0298C151.038 36.91 150.626 36.7692 150.053 36.6077C149.573 36.4774 149.172 36.3523 148.833 36.2272C148.495 36.1073 148.224 35.9666 148.02 35.8155C147.812 35.6591 147.666 35.4819 147.572 35.2839C147.478 35.0806 147.431 34.8409 147.431 34.5594C147.431 34.1842 147.504 33.8506 147.65 33.5483C147.796 33.2513 147.999 32.9959 148.26 32.7822C148.521 32.5737 148.828 32.4122 149.177 32.2975C149.526 32.1829 149.907 32.1307 150.319 32.1307C150.871 32.1307 151.387 32.2089 151.867 32.3705C152.346 32.5268 152.789 32.7874 153.19 33.1418L152.435 34.278C152.059 33.9966 151.7 33.7933 151.345 33.6578C150.996 33.5275 150.647 33.4597 150.303 33.4597C149.985 33.4597 149.719 33.5223 149.5 33.6578C149.287 33.7881 149.177 34.0018 149.177 34.2884C149.177 34.4187 149.203 34.5282 149.255 34.6116C149.308 34.6949 149.391 34.7731 149.5 34.8357C149.615 34.9034 149.761 34.966 149.943 35.0233C150.126 35.0858 150.35 35.1484 150.621 35.2109C151.126 35.3412 151.559 35.4715 151.919 35.6018C152.278 35.7321 152.575 35.8832 152.805 36.05C153.034 36.2168 153.201 36.4148 153.31 36.6337C153.414 36.8526 153.472 37.1184 153.472 37.4259C153.472 38.1452 153.206 38.7132 152.674 39.1302C152.143 39.5471 151.418 39.7556 150.501 39.7556" fill="#87A7D5"/>
<mask id="mask0_516_30" style="mask-type:luminance" maskUnits="userSpaceOnUse" x="0" y="16" width="45" height="23">
<path d="M37.1967 24.6831H37.2019C37.2019 24.6831 37.2019 24.6831 37.1967 24.6831ZM37.2019 24.6831C40.1778 26.1893 42.7004 28.1802 44.587 30.3066L44.6079 23.3489L37.2019 24.6779V24.6831ZM20.1176 22.5462L13.9625 18.9709L12.5762 25.616L5.7904 24.7613L6.62429 30.76L0.0991211 32.5112L2.34541 38.4787H2.35062C5.69138 28.2115 15.9951 21.1443 27.6174 21.9886C31.1145 22.244 34.3563 23.2394 37.1967 24.6779L35.013 18.2986L29.1132 22.1449L24.4122 16.8497L20.1281 22.5515L20.1176 22.5462Z" fill="white"/>
</mask>
<g mask="url(#mask0_516_30)">
<path d="M0 16.8133L44.6078 16.8445L44.7068 38.51L0.0990242 38.4735L0 16.8133Z" fill="url(#paint0_linear_516_30)"/>
</g>
<path d="M48.5636 34.1216C46.1557 34.1633 44.0449 34.4604 42.2 34.919C47.3648 37.0298 51.748 41.0064 54.406 43.8208H64.7775C64.7775 43.8208 58.0855 38.4162 48.5636 34.1216Z" fill="#89ADD9"/>
<path d="M32.8396 40.011C35.5237 41.3191 37.5094 42.6065 38.5048 43.2996C36.7432 41.8716 34.8983 40.7198 33.0585 39.7921C32.9803 39.865 32.9074 39.938 32.8396 40.011Z" fill="#F9ED32"/>
<path d="M33.0585 39.7921C24.5528 35.508 16.1097 35.9875 16.1097 35.9875C24.3861 31.3907 32.8605 31.3594 41.6632 34.7002C41.8456 34.7679 42.0228 34.8409 42.2 34.9138C44.045 34.4552 46.1557 34.1581 48.5636 34.1164C43.2528 31.7242 37.0664 29.676 30.6611 29.1027C12.769 27.5131 2.35059 40.0787 2.35059 40.0787C13.754 32.9698 25.7359 36.5503 32.8396 40.011C32.9126 39.938 32.9855 39.865 33.0585 39.7921Z" fill="#8E87C0"/>
<path d="M16.1096 35.9875C16.1096 35.9875 24.3338 35.7269 32.8395 40.011C34.549 38.3484 37.6865 36.0396 42.1999 34.9138C42.0227 34.8409 41.8455 34.7679 41.6631 34.7002C32.8603 31.3594 24.386 31.3907 16.1096 35.9875Z" fill="#86AFDA"/>
<path d="M54.406 43.8208C51.748 41.0064 47.3649 37.0298 42.2 34.919C37.6866 36.0448 34.5491 38.3536 32.8396 40.0162C34.6794 40.9439 36.6755 41.9862 38.5048 43.3882C39.8547 44.4254 41.1055 45.598 42.299 47.0052H57.1474C57.1474 47.0052 56.1468 45.6606 54.406 43.826" fill="#7ECDD6"/>
<mask id="mask1_516_30" style="mask-type:luminance" maskUnits="userSpaceOnUse" x="50" y="0" width="24" height="41">
<path d="M63.3704 32.6415L63.4173 32.5946L64.8609 31.1509L68.3216 27.6903V37.3842L63.3756 32.6363L63.3704 32.6415ZM60.9729 30.2858L56.079 25.3867L61.7234 19.7423L67.5554 25.5743L63.4225 29.7073L61.9788 31.1509L61.9163 31.2135L60.9834 30.2805L60.9729 30.2858ZM55.365 13.3891L60.2745 18.2986L55.365 23.2081V13.3891ZM63.1619 18.2986L68.3164 13.1442V23.4531L63.1619 18.2986ZM56.5846 11.7213H66.8518L61.7182 16.855L56.5846 11.7213ZM69.4629 0.114662L68.3164 1.74595V3.1792H55.365V1.74595L54.2184 0.114662H51.3467L50.0386 1.74595V34.1008C51.2112 34.1008 53.6034 34.3927 55.365 34.6949V27.56L59.5293 31.7242L60.4622 32.6571L57.7416 35.3777C58.4556 35.5862 59.1801 35.8207 59.9254 36.0761L61.9058 34.0956L68.5821 40.6208L73.6376 40.6624V1.74595L72.246 0.114662H69.4577H69.4629Z" fill="white"/>
</mask>
<g mask="url(#mask1_516_30)">
<path d="M50.0337 -0.00442853L49.835 40.6628L73.6422 40.7791L73.8409 0.111916L50.0337 -0.00442853Z" fill="url(#paint1_linear_516_30)"/>
</g>
</g>
<defs>
<linearGradient id="paint0_linear_516_30" x1="122.304" y1="28.5066" x2="174.977" y2="28.5434" gradientUnits="userSpaceOnUse">
<stop stop-color="#F99F36"/>
<stop offset="1" stop-color="#F3817D"/>
</linearGradient>
<linearGradient id="paint1_linear_516_30" x1="60.8688" y1="-1.13176" x2="60.6635" y2="40.8769" gradientUnits="userSpaceOnUse">
<stop stop-color="#F99F32"/>
<stop offset="1" stop-color="#F3817D"/>
</linearGradient>
<clipPath id="clip0_516_30">
<rect width="153.472" height="47" fill="white"/>
</clipPath>
</defs>
</svg>
