<svg width="206" height="64" viewBox="0 0 206 64" fill="none" xmlns="http://www.w3.org/2000/svg">
<g clip-path="url(#clip0_296_8914)">
<path d="M111.483 6.01134C111.393 5.9071 111.274 5.80287 111.128 5.71253C110.974 5.61524 110.807 5.52491 110.626 5.44847C110.438 5.37203 110.235 5.30949 110.012 5.26084C109.789 5.2122 109.559 5.19135 109.322 5.19135C108.702 5.19135 108.248 5.30949 107.963 5.5388C107.677 5.76812 107.53 6.08778 107.53 6.49083C107.53 6.70625 107.572 6.88692 107.656 7.0259C107.739 7.16489 107.865 7.28997 108.046 7.38726C108.221 7.49149 108.444 7.57488 108.702 7.65132C108.966 7.72776 109.273 7.8042 109.636 7.88759C110.047 7.97793 110.417 8.08216 110.751 8.19335C111.086 8.31148 111.365 8.45046 111.602 8.62419C111.839 8.79792 112.02 9.00639 112.139 9.24961C112.264 9.49282 112.32 9.79858 112.32 10.153C112.32 10.5352 112.243 10.8618 112.097 11.1398C111.943 11.4177 111.741 11.647 111.483 11.8347C111.225 12.0153 110.919 12.1474 110.57 12.2377C110.221 12.3211 109.838 12.3628 109.427 12.3628C108.813 12.3628 108.234 12.2655 107.684 12.0779C107.133 11.8902 106.638 11.6123 106.185 11.244L106.666 10.3962C106.784 10.5213 106.938 10.6533 107.133 10.7784C107.321 10.9035 107.537 11.0216 107.781 11.1189C108.025 11.2231 108.283 11.2996 108.569 11.3621C108.848 11.4247 109.141 11.4594 109.448 11.4594C110.012 11.4594 110.458 11.3552 110.772 11.1606C111.086 10.9591 111.246 10.6603 111.246 10.2572C111.246 10.0348 111.197 9.84722 111.093 9.69435C110.988 9.54147 110.842 9.40943 110.647 9.29825C110.451 9.18706 110.214 9.08978 109.922 8.99944C109.636 8.91605 109.308 8.82571 108.939 8.73537C108.534 8.63809 108.179 8.53385 107.872 8.42267C107.565 8.31148 107.307 8.17945 107.105 8.01962C106.903 7.85979 106.743 7.67217 106.638 7.4498C106.533 7.22743 106.478 6.95641 106.478 6.64371C106.478 6.26151 106.547 5.92795 106.694 5.63609C106.833 5.34423 107.035 5.10101 107.286 4.89949C107.537 4.69797 107.844 4.54509 108.193 4.4478C108.541 4.35051 108.925 4.29492 109.336 4.29492C109.873 4.29492 110.361 4.37831 110.793 4.53814C111.225 4.70492 111.609 4.92034 111.95 5.1983L111.476 6.01134H111.483Z" fill="#999999"/>
<path d="M117.228 12.3964C116.949 12.3964 116.691 12.3477 116.454 12.2574C116.217 12.1671 116.008 12.035 115.834 11.8683C115.659 11.7015 115.52 11.5139 115.415 11.2915C115.318 11.0691 115.262 10.8328 115.262 10.5688C115.262 10.3047 115.325 10.0546 115.443 9.83913C115.562 9.61676 115.729 9.42913 115.952 9.27626C116.175 9.11643 116.433 8.99829 116.74 8.90795C117.04 8.81762 117.374 8.77592 117.73 8.77592C118.016 8.77592 118.302 8.80372 118.594 8.85236C118.887 8.90795 119.145 8.97745 119.368 9.06083V8.59525C119.368 8.11576 119.236 7.74746 118.964 7.4695C118.692 7.19848 118.316 7.0595 117.821 7.0595C117.228 7.0595 116.607 7.28882 115.959 7.74051L115.631 7.1012C116.384 6.59392 117.144 6.34375 117.911 6.34375C118.678 6.34375 119.285 6.55222 119.71 6.95527C120.142 7.36526 120.358 7.94203 120.358 8.69253V11.0761C120.358 11.3054 120.463 11.4235 120.672 11.4374V12.2852C120.567 12.2991 120.484 12.313 120.414 12.3199C120.344 12.3269 120.275 12.3338 120.205 12.3338C120.01 12.3338 119.856 12.2783 119.738 12.1601C119.619 12.042 119.55 11.903 119.529 11.7432L119.508 11.3262C119.243 11.6806 118.915 11.9447 118.518 12.1254C118.12 12.306 117.688 12.3964 117.235 12.3964M117.493 11.6598C117.841 11.6598 118.169 11.5972 118.476 11.4652C118.783 11.3332 119.013 11.1595 119.166 10.944C119.305 10.805 119.382 10.6591 119.382 10.5062V9.64456C118.901 9.45693 118.406 9.36659 117.89 9.36659C117.374 9.36659 116.998 9.47083 116.684 9.6793C116.377 9.88777 116.217 10.1588 116.217 10.4923C116.217 10.6591 116.252 10.812 116.315 10.951C116.377 11.09 116.468 11.215 116.587 11.3193C116.705 11.4235 116.838 11.5069 116.998 11.5625C117.158 11.625 117.326 11.6528 117.5 11.6528" fill="#999999"/>
<path d="M123.788 9.35356C123.788 8.94356 123.858 8.55442 124.004 8.19306C124.144 7.83171 124.346 7.51206 124.611 7.24104C124.876 6.97003 125.182 6.75461 125.545 6.59478C125.907 6.43495 126.312 6.35156 126.765 6.35156C127.351 6.35156 127.853 6.47665 128.271 6.74071C128.696 6.99783 129.01 7.34528 129.233 7.77612L128.271 8.08188C128.117 7.80392 127.908 7.5885 127.643 7.43562C127.372 7.28274 127.079 7.2063 126.744 7.2063C126.472 7.2063 126.221 7.26189 125.984 7.36613C125.747 7.47731 125.538 7.62324 125.371 7.81782C125.196 8.01239 125.064 8.24171 124.959 8.49882C124.855 8.76289 124.806 9.0478 124.806 9.36051C124.806 9.67322 124.862 9.95118 124.966 10.2222C125.071 10.4932 125.21 10.7225 125.385 10.924C125.559 11.1186 125.768 11.2784 125.998 11.3896C126.228 11.5008 126.486 11.5564 126.758 11.5564C126.932 11.5564 127.1 11.5356 127.267 11.4869C127.434 11.4383 127.588 11.3757 127.727 11.2923C127.866 11.209 127.985 11.1186 128.09 11.0074C128.194 10.8963 128.271 10.7851 128.313 10.653L129.275 10.9449C129.184 11.1603 129.059 11.3618 128.898 11.5356C128.738 11.7162 128.55 11.8691 128.334 11.9942C128.117 12.1193 127.873 12.2235 127.609 12.3C127.344 12.3764 127.065 12.4111 126.772 12.4111C126.333 12.4111 125.928 12.3278 125.559 12.1679C125.196 12.0012 124.876 11.7857 124.618 11.5078C124.36 11.2298 124.151 10.9101 124.004 10.5418C123.858 10.1735 123.788 9.7844 123.788 9.37441" fill="#999999"/>
<path d="M135.73 7.31061C135.235 7.3245 134.803 7.45653 134.427 7.6928C134.05 7.92907 133.778 8.26263 133.625 8.68652V12.2861H132.635V6.44892H133.555V7.80399C133.757 7.40094 134.022 7.07434 134.35 6.82417C134.678 6.574 135.033 6.43502 135.403 6.40723H135.591C135.647 6.40723 135.689 6.40723 135.723 6.42112V7.31755L135.73 7.31061Z" fill="#999999"/>
<path d="M140.451 12.3964C140.172 12.3964 139.914 12.3477 139.677 12.2574C139.44 12.1671 139.231 12.035 139.056 11.8683C138.882 11.7015 138.743 11.5139 138.638 11.2915C138.54 11.0691 138.485 10.8328 138.485 10.5688C138.485 10.3047 138.547 10.0546 138.666 9.83913C138.784 9.61676 138.952 9.42913 139.175 9.27626C139.398 9.11643 139.656 8.99829 139.963 8.90795C140.262 8.81762 140.597 8.77592 140.953 8.77592C141.238 8.77592 141.524 8.80372 141.817 8.85236C142.11 8.90795 142.368 8.97745 142.591 9.06083V8.59525C142.591 8.11576 142.458 7.74746 142.187 7.4695C141.915 7.19848 141.538 7.0595 141.043 7.0595C140.451 7.0595 139.83 7.28882 139.182 7.74051L138.854 7.1012C139.607 6.59392 140.367 6.34375 141.134 6.34375C141.901 6.34375 142.507 6.55222 142.933 6.95527C143.365 7.36526 143.581 7.94203 143.581 8.69253V11.0761C143.581 11.3054 143.685 11.4235 143.895 11.4374V12.2852C143.79 12.2991 143.706 12.313 143.637 12.3199C143.567 12.3269 143.497 12.3338 143.427 12.3338C143.232 12.3338 143.079 12.2783 142.96 12.1601C142.842 12.042 142.772 11.903 142.751 11.7432L142.73 11.3262C142.465 11.6806 142.138 11.9447 141.74 12.1254C141.343 12.306 140.911 12.3964 140.458 12.3964M140.716 11.6598C141.064 11.6598 141.392 11.5972 141.699 11.4652C142.005 11.3332 142.235 11.1595 142.389 10.944C142.528 10.805 142.605 10.6591 142.605 10.5062V9.64456C142.124 9.45693 141.629 9.36659 141.113 9.36659C140.597 9.36659 140.221 9.47083 139.907 9.6793C139.6 9.88777 139.44 10.1588 139.44 10.4923C139.44 10.6591 139.475 10.812 139.537 10.951C139.6 11.09 139.691 11.215 139.809 11.3193C139.928 11.4235 140.06 11.5069 140.221 11.5625C140.381 11.625 140.548 11.6528 140.723 11.6528" fill="#999999"/>
<path d="M156.227 12.2852H155.237V9.01914C155.237 8.40762 155.14 7.95593 154.938 7.66407C154.742 7.37221 154.443 7.22628 154.059 7.22628C153.676 7.22628 153.292 7.37221 152.979 7.65712C152.665 7.94204 152.435 8.31728 152.302 8.76897V12.2783H151.312V9.01219C151.312 8.38678 151.215 7.92814 151.02 7.65017C150.824 7.36526 150.532 7.22628 150.148 7.22628C149.765 7.22628 149.395 7.36526 149.067 7.64323C148.747 7.92119 148.517 8.29644 148.384 8.75508V12.2783H147.394V6.44799H148.294V7.69882C148.531 7.26798 148.844 6.93442 149.228 6.69815C149.611 6.46188 150.037 6.34375 150.518 6.34375C150.999 6.34375 151.403 6.47578 151.689 6.73985C151.975 7.00391 152.156 7.34442 152.226 7.76136C152.748 6.81629 153.494 6.34375 154.457 6.34375C154.791 6.34375 155.077 6.40629 155.3 6.53137C155.53 6.65646 155.711 6.82324 155.844 7.04561C155.976 7.26798 156.074 7.52509 156.137 7.8239C156.199 8.12271 156.227 8.44237 156.227 8.79677V12.2852Z" fill="#999999"/>
<path d="M162.599 12.3971C162.16 12.3971 161.756 12.3207 161.386 12.1609C161.024 12.001 160.703 11.7856 160.445 11.5077C160.187 11.2297 159.978 10.91 159.831 10.5417C159.685 10.1734 159.615 9.78429 159.615 9.37429C159.615 8.9643 159.692 8.57515 159.831 8.2138C159.978 7.8455 160.18 7.52584 160.445 7.25483C160.71 6.97687 161.024 6.76144 161.393 6.60162C161.762 6.44179 162.16 6.3584 162.606 6.3584C163.052 6.3584 163.45 6.44179 163.812 6.60857C164.175 6.77534 164.481 6.99076 164.739 7.26178C164.997 7.53279 165.193 7.85245 165.325 8.2138C165.464 8.57515 165.534 8.9504 165.534 9.33955C165.534 9.42294 165.534 9.49938 165.534 9.56192C165.534 9.63141 165.527 9.68005 165.52 9.72175H160.668C160.689 10.0136 160.759 10.2777 160.87 10.5139C160.982 10.7502 161.128 10.9587 161.309 11.1255C161.491 11.2992 161.693 11.4312 161.923 11.5285C162.153 11.6258 162.39 11.6744 162.648 11.6744C162.829 11.6744 163.003 11.6466 163.178 11.598C163.352 11.5494 163.512 11.4868 163.659 11.4034C163.805 11.32 163.938 11.2227 164.056 11.0977C164.175 10.9795 164.258 10.8475 164.321 10.6946L165.172 10.9309C165.074 11.1463 164.942 11.3409 164.774 11.5216C164.607 11.7022 164.412 11.8551 164.189 11.9871C163.966 12.1192 163.722 12.2234 163.457 12.2929C163.185 12.3693 162.906 12.4041 162.613 12.4041M164.621 8.98515C164.6 8.70718 164.53 8.45702 164.412 8.22075C164.293 7.98448 164.147 7.78991 163.973 7.62313C163.798 7.45635 163.596 7.33127 163.359 7.23398C163.129 7.14364 162.878 7.095 162.62 7.095C162.362 7.095 162.111 7.14364 161.881 7.23398C161.651 7.32432 161.442 7.45635 161.268 7.62313C161.093 7.78991 160.947 7.99143 160.842 8.22075C160.731 8.45007 160.668 8.70718 160.647 8.9782H164.614L164.621 8.98515Z" fill="#999999"/>
<path d="M173.963 12.2852H172.973V9.01914C172.973 8.39372 172.875 7.93509 172.687 7.65712C172.499 7.37221 172.206 7.23323 171.816 7.23323C171.613 7.23323 171.411 7.27492 171.209 7.35136C171.007 7.4278 170.819 7.53899 170.637 7.67102C170.456 7.80305 170.303 7.96288 170.163 8.15051C170.031 8.33813 169.926 8.53965 169.864 8.76202V12.2852H168.874V6.44799H169.773V7.69882C170.003 7.28882 170.338 6.96222 170.777 6.71205C171.216 6.46883 171.69 6.34375 172.206 6.34375C172.541 6.34375 172.819 6.40629 173.05 6.53137C173.273 6.65646 173.454 6.82324 173.586 7.04561C173.719 7.26798 173.816 7.52509 173.872 7.8239C173.928 8.12271 173.956 8.44237 173.956 8.79677V12.2852H173.963Z" fill="#999999"/>
<path d="M180.711 11.994C180.649 12.0218 180.572 12.0566 180.474 12.0983C180.377 12.14 180.265 12.1816 180.147 12.2233C180.021 12.265 179.889 12.2998 179.742 12.3276C179.596 12.3554 179.442 12.3693 179.289 12.3693C178.927 12.3693 178.62 12.272 178.355 12.0705C178.09 11.8689 177.964 11.5632 177.964 11.1462V7.22001H177.17V6.44867H177.964V4.50293H178.954V6.44867H180.265V7.22001H178.954V10.8405C178.968 11.0559 179.038 11.2157 179.171 11.313C179.296 11.4103 179.449 11.4589 179.617 11.4589C179.812 11.4589 179.986 11.4242 180.147 11.3617C180.307 11.2991 180.418 11.2505 180.474 11.2088L180.711 11.994Z" fill="#999999"/>
<path d="M186.351 12.3964C185.912 12.3964 185.508 12.313 185.145 12.1532C184.783 11.9864 184.476 11.771 184.211 11.493C183.953 11.215 183.751 10.8954 183.612 10.5271C183.472 10.1657 183.396 9.77659 183.396 9.37354C183.396 8.9705 183.465 8.5744 183.612 8.21305C183.758 7.84475 183.96 7.52509 184.218 7.25408C184.476 6.97611 184.79 6.76069 185.152 6.59392C185.515 6.42714 185.912 6.34375 186.345 6.34375C186.777 6.34375 187.181 6.42714 187.544 6.59392C187.913 6.76069 188.22 6.97611 188.478 7.25408C188.736 7.53204 188.938 7.8517 189.084 8.21305C189.231 8.5744 189.3 8.96355 189.3 9.37354C189.3 9.78354 189.231 10.1588 189.084 10.5271C188.945 10.8954 188.743 11.215 188.478 11.493C188.213 11.771 187.906 11.9864 187.544 12.1532C187.181 12.313 186.777 12.3964 186.338 12.3964M184.399 9.38744C184.399 9.6932 184.448 9.97811 184.553 10.2352C184.657 10.4993 184.79 10.7217 184.971 10.9162C185.145 11.1108 185.355 11.2637 185.585 11.3749C185.822 11.4861 186.073 11.5417 186.338 11.5417C186.602 11.5417 186.86 11.4861 187.097 11.3749C187.334 11.2637 187.544 11.1108 187.718 10.9093C187.899 10.7078 188.039 10.4784 188.136 10.2144C188.241 9.95031 188.29 9.6654 188.29 9.35964C188.29 9.05389 188.241 8.78287 188.136 8.51881C188.039 8.25474 187.892 8.02542 187.718 7.8239C187.537 7.62933 187.328 7.4695 187.097 7.35831C186.867 7.24713 186.609 7.19154 186.338 7.19154C186.066 7.19154 185.815 7.24713 185.585 7.36526C185.348 7.4834 185.145 7.63628 184.971 7.83085C184.797 8.03237 184.657 8.26169 184.553 8.52576C184.448 8.78982 184.399 9.07473 184.399 9.38049" fill="#999999"/>
<path d="M106.234 26.2669C106.234 25.4538 106.38 24.6547 106.673 23.8625C106.966 23.0703 107.398 22.3615 107.956 21.743C108.52 21.1176 109.203 20.6173 110.019 20.2281C110.835 19.8459 111.755 19.6514 112.794 19.6514C114.021 19.6514 115.081 19.9224 115.973 20.4575C116.865 20.9925 117.535 21.6944 117.967 22.5491L115.98 23.9111C115.806 23.5359 115.589 23.2232 115.339 22.9661C115.088 22.709 114.823 22.5074 114.53 22.3615C114.244 22.2086 113.944 22.1044 113.63 22.0349C113.317 21.9654 113.01 21.9307 112.71 21.9307C112.062 21.9307 111.49 22.0627 111.009 22.3268C110.528 22.5908 110.131 22.9313 109.81 23.3483C109.489 23.7652 109.252 24.2377 109.085 24.7659C108.925 25.294 108.841 25.8221 108.841 26.3433C108.841 26.927 108.932 27.4899 109.12 28.0389C109.308 28.5809 109.573 29.0604 109.915 29.4704C110.256 29.8804 110.668 30.2139 111.156 30.4572C111.637 30.7073 112.166 30.8324 112.738 30.8324C113.038 30.8324 113.352 30.7977 113.679 30.7212C114.007 30.6448 114.314 30.5267 114.606 30.3668C114.899 30.207 115.171 29.9985 115.422 29.7414C115.673 29.4843 115.875 29.1785 116.022 28.8172L118.141 30.0333C117.932 30.5336 117.625 30.9714 117.235 31.3536C116.837 31.7358 116.398 32.0554 115.903 32.3195C115.408 32.5836 114.878 32.7781 114.321 32.9171C113.756 33.0561 113.205 33.1256 112.668 33.1256C111.72 33.1256 110.849 32.9241 110.061 32.528C109.273 32.1319 108.597 31.6107 108.025 30.9644C107.454 30.3182 107.014 29.5955 106.694 28.7755C106.373 27.9624 106.213 27.1286 106.213 26.2808" fill="#87A7D5"/>
<path d="M121.16 19.3535H123.676V21.8413H121.16V19.3535ZM121.16 23.2033H123.676V33.0015H121.16V23.2033Z" fill="#87A7D5"/>
<path d="M133.333 32.494C132.998 32.6468 132.58 32.7928 132.092 32.9457C131.604 33.0985 131.095 33.168 130.551 33.168C130.202 33.168 129.875 33.1263 129.568 33.036C129.261 32.9526 128.996 32.8067 128.759 32.6191C128.522 32.4314 128.341 32.1743 128.209 31.8686C128.069 31.5628 127.999 31.1945 127.999 30.7567V25.128H126.703V23.2031H127.999V20.0273H130.516V23.2031H132.58V25.128H130.516V29.9159C130.516 30.2633 130.607 30.5135 130.788 30.6525C130.969 30.7914 131.192 30.8679 131.45 30.8679C131.708 30.8679 131.966 30.8262 132.217 30.7359C132.468 30.6525 132.67 30.576 132.817 30.5135L133.326 32.494H133.333Z" fill="#87A7D5"/>
<path d="M136.351 34.9044C136.56 34.9669 136.77 35.0156 136.972 35.0434C137.174 35.0781 137.341 35.092 137.481 35.092C137.641 35.092 137.794 35.0642 137.934 35.0017C138.073 34.9391 138.199 34.8279 138.31 34.6751C138.422 34.5152 138.533 34.3068 138.652 34.0288C138.77 33.7508 138.882 33.4103 139.007 33.0003L135.124 23.2021H137.711L140.374 30.8322L142.737 23.2021H145.101L140.973 34.9391C140.736 35.6271 140.332 36.183 139.753 36.6208C139.182 37.0586 138.464 37.274 137.613 37.274C137.411 37.274 137.209 37.2601 137.007 37.2254C136.797 37.1906 136.581 37.142 136.358 37.0655V34.8974L136.351 34.9044Z" fill="#87A7D5"/>
<path d="M156.046 33.1822C155.307 33.1822 154.638 33.0432 154.031 32.7722C153.425 32.5012 152.909 32.1329 152.476 31.6673C152.044 31.2086 151.71 30.6736 151.473 30.062C151.235 29.4505 151.117 28.8112 151.117 28.1372C151.117 27.4631 151.235 26.8029 151.486 26.1914C151.73 25.5799 152.065 25.0448 152.497 24.5862C152.93 24.1275 153.445 23.7592 154.052 23.4813C154.659 23.2103 155.321 23.0713 156.053 23.0713C156.785 23.0713 157.447 23.2103 158.061 23.4813C158.674 23.7523 159.197 24.1206 159.629 24.5862C160.062 25.0448 160.396 25.5799 160.64 26.1914C160.884 26.8029 161.003 27.4492 161.003 28.1372C161.003 28.8251 160.884 29.4505 160.647 30.062C160.41 30.6736 160.069 31.2086 159.636 31.6673C159.197 32.1259 158.674 32.4942 158.068 32.7722C157.461 33.0432 156.792 33.1822 156.053 33.1822M152.804 28.1511C152.804 28.6653 152.888 29.1378 153.055 29.5687C153.222 30.0065 153.452 30.3817 153.752 30.7083C154.045 31.0349 154.387 31.2851 154.784 31.4727C155.181 31.6603 155.6 31.7507 156.053 31.7507C156.506 31.7507 156.924 31.6603 157.322 31.4727C157.712 31.2851 158.061 31.028 158.36 30.6944C158.66 30.3678 158.897 29.9787 159.065 29.5339C159.232 29.0892 159.316 28.6166 159.316 28.1024C159.316 27.5882 159.232 27.1295 159.065 26.6918C158.897 26.247 158.66 25.8648 158.36 25.5313C158.061 25.2047 157.712 24.9406 157.322 24.753C156.924 24.5653 156.506 24.475 156.053 24.475C155.6 24.475 155.181 24.5723 154.784 24.7669C154.387 24.9614 154.045 25.2185 153.752 25.5521C153.459 25.8857 153.229 26.2679 153.055 26.7126C152.888 27.1573 152.804 27.6299 152.804 28.1441" fill="#87A7D5"/>
<path d="M164.112 32.9939V24.523H162.781V23.2305H164.112V23.022C164.112 21.8129 164.377 20.8678 164.921 20.1798C165.458 19.4919 166.19 19.1514 167.117 19.1514C167.507 19.1514 167.884 19.207 168.26 19.3112C168.637 19.4154 168.971 19.5614 169.271 19.749L168.86 20.9651C168.685 20.84 168.469 20.7427 168.211 20.6663C167.953 20.5898 167.702 20.5551 167.452 20.5551C166.901 20.5551 166.482 20.7636 166.197 21.1735C165.911 21.5835 165.764 22.1812 165.764 22.9664V23.2305H168.372V24.523H165.764V32.9939H164.112Z" fill="#87A7D5"/>
<path d="M116.287 51.3338C115.22 52.3971 113.986 52.9252 112.571 52.9252C111.692 52.9252 110.87 52.7515 110.103 52.404C109.336 52.0565 108.667 51.5771 108.095 50.9655C107.523 50.354 107.077 49.6383 106.743 48.8044C106.415 47.9774 106.248 47.081 106.248 46.122C106.248 45.2117 106.415 44.357 106.743 43.5509C107.077 42.7448 107.53 42.0429 108.116 41.4384C108.695 40.8338 109.385 40.3543 110.166 39.9999C110.953 39.6455 111.811 39.4648 112.738 39.4648C113.986 39.4648 115.06 39.7289 115.952 40.2501C116.844 40.7713 117.521 41.4801 117.967 42.3626L116.036 43.7802C115.701 43.1201 115.227 42.6128 114.62 42.2653C114.014 41.9179 113.352 41.7441 112.641 41.7441C112.076 41.7441 111.56 41.8623 111.093 42.0985C110.626 42.3348 110.221 42.6614 109.894 43.0714C109.566 43.4814 109.308 43.9539 109.127 44.496C108.946 45.031 108.855 45.6009 108.855 46.1985C108.855 46.7961 108.953 47.4076 109.155 47.9427C109.357 48.4847 109.629 48.9573 109.977 49.3534C110.326 49.7564 110.744 50.0691 111.225 50.2984C111.706 50.5278 112.229 50.6459 112.794 50.6459C114.084 50.6459 115.241 50.0413 116.28 48.8322V47.901H113.596V46.0109H118.413V52.8348H116.273V51.3408L116.287 51.3338Z" fill="#87A7D5"/>
<path d="M126.43 53.0139C125.629 53.0139 124.911 52.8749 124.276 52.6039C123.635 52.3329 123.098 51.9577 122.652 51.4921C122.206 51.0265 121.864 50.4844 121.627 49.8729C121.39 49.2614 121.271 48.6221 121.271 47.948C121.271 47.274 121.39 46.6138 121.627 46.0023C121.864 45.3908 122.206 44.8557 122.652 44.3832C123.098 43.9106 123.635 43.5423 124.276 43.2713C124.911 43.0003 125.636 42.8613 126.43 42.8613C127.225 42.8613 127.95 43.0003 128.578 43.2713C129.212 43.5493 129.749 43.9176 130.188 44.3832C130.634 44.8488 130.976 45.3908 131.213 46.0023C131.45 46.6138 131.569 47.2601 131.569 47.948C131.569 48.636 131.45 49.2614 131.213 49.8729C130.976 50.4844 130.641 51.0195 130.202 51.4921C129.763 51.9577 129.226 52.3329 128.592 52.6039C127.95 52.8749 127.232 53.0139 126.437 53.0139M123.865 47.948C123.865 48.3858 123.928 48.7819 124.06 49.1363C124.193 49.4907 124.374 49.8034 124.604 50.0606C124.834 50.3246 125.106 50.5261 125.42 50.6651C125.733 50.8111 126.068 50.8805 126.43 50.8805C126.793 50.8805 127.128 50.8111 127.441 50.6651C127.755 50.5192 128.027 50.3177 128.257 50.0606C128.487 49.7965 128.668 49.4907 128.801 49.1224C128.933 48.7611 128.996 48.365 128.996 47.9272C128.996 47.4894 128.926 47.1142 128.801 46.7528C128.668 46.3915 128.487 46.0787 128.257 45.8147C128.027 45.5506 127.755 45.3491 127.441 45.2101C127.128 45.0642 126.793 44.9947 126.43 44.9947C126.068 44.9947 125.733 45.0711 125.42 45.2171C125.106 45.3699 124.834 45.5715 124.604 45.8355C124.374 46.0996 124.193 46.4054 124.06 46.7667C123.928 47.1281 123.865 47.5242 123.865 47.948Z" fill="#87A7D5"/>
<path d="M139.293 53.0139C138.492 53.0139 137.773 52.8749 137.139 52.6039C136.498 52.3329 135.961 51.9577 135.515 51.4921C135.068 51.0265 134.727 50.4844 134.49 49.8729C134.253 49.2614 134.134 48.6221 134.134 47.948C134.134 47.274 134.253 46.6138 134.49 46.0023C134.727 45.3908 135.068 44.8557 135.515 44.3832C135.961 43.9106 136.498 43.5423 137.139 43.2713C137.773 43.0003 138.499 42.8613 139.293 42.8613C140.088 42.8613 140.813 43.0003 141.441 43.2713C142.075 43.5493 142.612 43.9176 143.051 44.3832C143.497 44.8488 143.839 45.3908 144.076 46.0023C144.313 46.6138 144.431 47.2601 144.431 47.948C144.431 48.636 144.313 49.2614 144.076 49.8729C143.839 50.4844 143.504 51.0195 143.065 51.4921C142.626 51.9577 142.089 52.3329 141.454 52.6039C140.813 52.8749 140.095 53.0139 139.3 53.0139M136.728 47.948C136.728 48.3858 136.79 48.7819 136.923 49.1363C137.055 49.4907 137.237 49.8034 137.467 50.0606C137.697 50.3246 137.969 50.5261 138.282 50.6651C138.596 50.8111 138.931 50.8805 139.293 50.8805C139.656 50.8805 139.99 50.8111 140.304 50.6651C140.618 50.5192 140.89 50.3177 141.12 50.0606C141.35 49.7965 141.531 49.4907 141.664 49.1224C141.796 48.7611 141.859 48.365 141.859 47.9272C141.859 47.4894 141.789 47.1142 141.664 46.7528C141.531 46.3915 141.35 46.0787 141.12 45.8147C140.89 45.5506 140.618 45.3491 140.304 45.2101C139.99 45.0642 139.656 44.9947 139.293 44.9947C138.931 44.9947 138.596 45.0711 138.282 45.2171C137.969 45.3699 137.697 45.5715 137.467 45.8355C137.237 46.0996 137.055 46.4054 136.923 46.7667C136.79 47.1281 136.728 47.5242 136.728 47.948Z" fill="#87A7D5"/>
<path d="M151.696 53.0145C151.02 53.0145 150.392 52.8825 149.82 52.6184C149.242 52.3544 148.747 51.993 148.335 51.5344C147.924 51.0757 147.596 50.5337 147.366 49.9152C147.136 49.2968 147.018 48.6366 147.018 47.9209C147.018 47.2051 147.129 46.5519 147.345 45.9404C147.562 45.3289 147.868 44.7938 148.252 44.3351C148.642 43.8765 149.102 43.5152 149.639 43.2511C150.176 42.987 150.762 42.855 151.403 42.855C152.128 42.855 152.783 43.0287 153.362 43.3762C153.948 43.7236 154.401 44.1823 154.721 44.7382V39.165H157.231V49.9291C157.231 50.1932 157.273 50.3808 157.364 50.492C157.447 50.6032 157.601 50.6657 157.817 50.6796V52.813C157.378 52.9033 157.022 52.945 156.75 52.945C156.297 52.945 155.935 52.8338 155.642 52.6045C155.356 52.3822 155.189 52.0903 155.154 51.722L155.098 51.1035C154.735 51.729 154.247 52.1945 153.627 52.5142C153.006 52.8339 152.358 52.9937 151.689 52.9937M152.344 50.8603C152.581 50.8603 152.825 50.8186 153.076 50.7352C153.327 50.6588 153.557 50.5407 153.773 50.3878C153.989 50.2349 154.178 50.0612 154.345 49.8666C154.512 49.6651 154.645 49.4497 154.728 49.2134V46.8785C154.631 46.6075 154.484 46.3504 154.31 46.1211C154.129 45.8917 153.92 45.6902 153.69 45.5234C153.46 45.3567 153.216 45.2177 152.958 45.1204C152.7 45.0231 152.449 44.9675 152.198 44.9675C151.821 44.9675 151.473 45.0509 151.159 45.2107C150.838 45.3706 150.566 45.5929 150.343 45.8778C150.12 46.1558 149.946 46.4824 149.82 46.8438C149.695 47.2051 149.632 47.5804 149.632 47.9626C149.632 48.3725 149.702 48.7548 149.841 49.1022C149.981 49.4497 150.169 49.7554 150.406 50.0195C150.643 50.2835 150.929 50.4851 151.257 50.6379C151.584 50.7908 151.954 50.8603 152.351 50.8603" fill="#87A7D5"/>
<path d="M170.352 52.8264H167.835V47.3297C167.835 46.5444 167.696 45.9677 167.424 45.6063C167.152 45.245 166.769 45.0643 166.281 45.0643C166.03 45.0643 165.772 45.1129 165.514 45.2102C165.249 45.3075 165.005 45.4534 164.775 45.6341C164.545 45.8148 164.336 46.0302 164.147 46.2804C163.959 46.5305 163.82 46.8016 163.736 47.1004V52.8195H161.219V43.0213H163.492V44.835C163.855 44.2096 164.377 43.7231 165.068 43.3757C165.758 43.0282 166.532 42.8545 167.396 42.8545C168.01 42.8545 168.512 42.9657 168.895 43.195C169.285 43.4174 169.585 43.7092 169.794 44.0706C170.003 44.4319 170.157 44.8419 170.234 45.3006C170.317 45.7592 170.359 46.2317 170.359 46.7043V52.8195L170.352 52.8264Z" fill="#87A7D5"/>
<path d="M178.606 53.0148C177.819 53.0148 177.107 52.8827 176.466 52.6117C175.832 52.3477 175.281 51.9794 174.835 51.5207C174.388 51.0621 174.04 50.527 173.796 49.9155C173.552 49.304 173.433 48.6647 173.433 47.9906C173.433 47.3165 173.552 46.6355 173.789 46.0171C174.026 45.3986 174.368 44.8566 174.821 44.391C175.274 43.9254 175.818 43.5501 176.459 43.2791C177.1 43.0081 177.825 42.8691 178.627 42.8691C179.429 42.8691 180.14 43.0081 180.774 43.2791C181.409 43.5501 181.946 43.9184 182.385 44.384C182.831 44.8427 183.166 45.3847 183.396 45.9893C183.626 46.6008 183.744 47.2332 183.744 47.8933C183.744 48.0531 183.744 48.213 183.737 48.3589C183.73 48.5048 183.717 48.6299 183.689 48.7341H176.09C176.124 49.1233 176.222 49.4638 176.368 49.7626C176.522 50.0614 176.71 50.3185 176.947 50.527C177.184 50.7424 177.456 50.9023 177.756 51.0134C178.056 51.1246 178.369 51.1802 178.69 51.1802C179.192 51.1802 179.666 51.0551 180.105 50.8119C180.551 50.5687 180.851 50.249 181.012 49.8529L183.166 50.4506C182.803 51.2011 182.225 51.8126 181.43 52.2921C180.635 52.7716 179.687 53.0078 178.585 53.0078M181.137 47.1011C181.074 46.3645 180.802 45.7738 180.321 45.3361C179.84 44.8913 179.255 44.6759 178.564 44.6759C178.223 44.6759 177.909 44.7315 177.616 44.8496C177.324 44.9678 177.066 45.1345 176.835 45.343C176.612 45.5584 176.424 45.8086 176.285 46.1074C176.138 46.4062 176.055 46.7398 176.034 47.0942H181.137V47.1011Z" fill="#87A7D5"/>
<path d="M190.5 53.0143C189.677 53.0143 188.868 52.8822 188.08 52.6182C187.293 52.3541 186.616 51.9858 186.059 51.4994L186.993 49.9289C187.592 50.3528 188.178 50.6724 188.75 50.8948C189.321 51.1172 189.886 51.2214 190.451 51.2214C190.953 51.2214 191.343 51.1311 191.629 50.9434C191.915 50.7558 192.061 50.4848 192.061 50.1373C192.061 49.7899 191.894 49.5328 191.552 49.3729C191.218 49.2131 190.667 49.0255 189.9 48.8101C189.259 48.6363 188.722 48.4696 188.269 48.3028C187.815 48.143 187.453 47.9553 187.181 47.7538C186.902 47.5453 186.707 47.3091 186.581 47.045C186.456 46.774 186.393 46.4543 186.393 46.0791C186.393 45.5787 186.491 45.134 186.686 44.731C186.881 44.3349 187.153 43.9944 187.502 43.7095C187.85 43.4315 188.262 43.2161 188.729 43.0632C189.196 42.9103 189.705 42.8408 190.256 42.8408C190.994 42.8408 191.685 42.9451 192.326 43.1605C192.967 43.3689 193.56 43.7164 194.097 44.1889L193.086 45.7038C192.584 45.3286 192.103 45.0576 191.629 44.8769C191.162 44.7032 190.695 44.6128 190.235 44.6128C189.809 44.6128 189.454 44.6962 189.161 44.8769C188.875 45.0506 188.729 45.3355 188.729 45.7177C188.729 45.8915 188.764 46.0374 188.833 46.1486C188.903 46.2598 189.015 46.364 189.161 46.4474C189.314 46.5377 189.51 46.6211 189.754 46.6975C189.998 46.7809 190.297 46.8643 190.66 46.9477C191.336 47.1214 191.915 47.2952 192.396 47.4689C192.877 47.6426 193.274 47.8441 193.581 48.0665C193.888 48.2889 194.111 48.553 194.257 48.8448C194.397 49.1367 194.473 49.4911 194.473 49.9011C194.473 50.86 194.118 51.6175 193.407 52.1734C192.696 52.7293 191.727 53.0073 190.5 53.0073" fill="#87A7D5"/>
<path d="M201.32 53.0143C200.497 53.0143 199.688 52.8822 198.901 52.6182C198.113 52.3541 197.437 51.9858 196.879 51.4994L197.813 49.9289C198.413 50.3528 198.998 50.6724 199.57 50.8948C200.142 51.1172 200.706 51.2214 201.271 51.2214C201.773 51.2214 202.163 51.1311 202.449 50.9434C202.735 50.7558 202.881 50.4848 202.881 50.1373C202.881 49.7899 202.714 49.5328 202.373 49.3729C202.038 49.2131 201.487 49.0255 200.72 48.8101C200.079 48.6363 199.542 48.4696 199.089 48.3028C198.636 48.143 198.273 47.9553 198.001 47.7538C197.722 47.5453 197.527 47.3091 197.402 47.045C197.276 46.774 197.214 46.4543 197.214 46.0791C197.214 45.5787 197.311 45.134 197.506 44.731C197.702 44.3349 197.973 43.9944 198.322 43.7095C198.671 43.4315 199.082 43.2161 199.549 43.0632C200.016 42.9103 200.525 42.8408 201.076 42.8408C201.815 42.8408 202.505 42.9451 203.146 43.1605C203.788 43.3689 204.38 43.7164 204.917 44.1889L203.906 45.7038C203.404 45.3286 202.923 45.0576 202.449 44.8769C201.982 44.7032 201.515 44.6128 201.055 44.6128C200.63 44.6128 200.274 44.6962 199.981 44.8769C199.695 45.0506 199.549 45.3355 199.549 45.7177C199.549 45.8915 199.584 46.0374 199.654 46.1486C199.723 46.2598 199.835 46.364 199.981 46.4474C200.135 46.5377 200.33 46.6211 200.574 46.6975C200.818 46.7809 201.118 46.8643 201.48 46.9477C202.156 47.1214 202.735 47.2952 203.216 47.4689C203.697 47.6426 204.095 47.8441 204.401 48.0665C204.708 48.2889 204.931 48.553 205.078 48.8448C205.217 49.1367 205.294 49.4911 205.294 49.9011C205.294 50.86 204.938 51.6175 204.227 52.1734C203.516 52.7293 202.547 53.0073 201.32 53.0073" fill="#87A7D5"/>
<mask id="mask0_296_8914" style="mask-type:luminance" maskUnits="userSpaceOnUse" x="0" y="22" width="60" height="30">
<path d="M49.7564 32.9103H49.7633C49.7633 32.9103 49.7633 32.9103 49.7564 32.9103ZM49.7633 32.9103C53.7441 34.9185 57.1184 37.5731 59.6421 40.4083L59.67 31.1313L49.7633 32.9033V32.9103ZM26.9103 30.0611L18.6769 25.2941L16.8224 34.1541L7.74534 33.0145L8.8608 41.0129L0.132324 43.3478L3.1371 51.3044H3.14407C7.61288 37.6148 21.3958 28.1918 36.9425 29.3176C41.6205 29.6581 45.9568 30.9854 49.7564 32.9033L46.8352 24.3977L38.9434 29.5261L32.655 22.4658L26.9243 30.0681L26.9103 30.0611Z" fill="white"/>
</mask>
<g mask="url(#mask0_296_8914)">
<path d="M0 22.416L59.6702 22.4577L59.8026 51.345L0.132461 51.2963L0 22.416Z" fill="url(#paint0_linear_296_8914)"/>
</g>
<path d="M64.9618 45.4961C61.7409 45.5517 58.9174 45.9478 56.4495 46.5593C63.3583 49.3737 69.2215 54.6758 72.777 58.4283H86.6506C86.6506 58.4283 77.699 51.2221 64.9618 45.4961Z" fill="#89ADD9"/>
<path d="M43.9282 53.3485C47.5186 55.0927 50.1748 56.8091 51.5064 57.7334C49.15 55.8293 46.682 54.2936 44.221 53.0566C44.1165 53.1539 44.0189 53.2512 43.9282 53.3485Z" fill="#F9ED32"/>
<path d="M44.2211 53.0561C32.8434 47.3439 21.5494 47.9833 21.5494 47.9833C32.6203 41.8542 43.9562 41.8125 55.7313 46.2668C55.9753 46.3572 56.2123 46.4545 56.4493 46.5517C58.9173 45.9402 61.7408 45.5441 64.9617 45.4885C57.8576 42.2989 49.5823 39.5679 41.0142 38.8035C17.0806 36.6841 3.14429 53.4383 3.14429 53.4383C18.3982 43.9597 34.426 48.7338 43.9283 53.3479C44.0259 53.2506 44.1235 53.1534 44.2211 53.0561Z" fill="#8E87C0"/>
<path d="M21.5493 47.9834C21.5493 47.9834 32.5505 47.6359 43.9282 53.3481C46.2149 51.1313 50.4119 48.0529 56.4493 46.5519C56.2122 46.4546 55.9752 46.3573 55.7312 46.267C43.9561 41.8126 32.6203 41.8543 21.5493 47.9834Z" fill="#86AFDA"/>
<path d="M72.7768 58.4266C69.2213 54.6741 63.3581 49.372 56.4493 46.5576C50.4118 48.0586 46.2149 51.137 43.9282 53.3538C46.3892 54.5907 49.0593 55.9805 51.5064 57.8498C53.312 59.2327 54.9852 60.7963 56.5817 62.6725H76.4439C76.4439 62.6725 75.1053 60.8796 72.7768 58.4336" fill="#7ECDD6"/>
<mask id="mask1_296_8914" style="mask-type:luminance" maskUnits="userSpaceOnUse" x="66" y="0" width="33" height="55">
<path d="M84.768 43.5224L84.8307 43.4599L86.7619 41.535L91.391 36.9208V49.8461L84.775 43.5155L84.768 43.5224ZM81.561 40.3814L75.0147 33.8493L82.565 26.3235L90.3662 34.0995L84.8377 39.6101L82.9066 41.535L82.8229 41.6184L81.575 40.3745L81.561 40.3814ZM74.0596 17.8526L80.6268 24.3986L74.0596 30.9446V17.8526ZM84.4891 24.3986L91.3841 17.526V31.2712L84.4891 24.3986ZM75.6909 15.6289H89.425L82.558 22.4737L75.6909 15.6289ZM92.9178 0.15332L91.3841 2.32838V4.23937H74.0596V2.32838L72.5258 0.15332H68.6844L66.9346 2.32838V45.4682C68.5032 45.4682 71.7032 45.8573 74.0596 46.2604V36.7471L79.6299 42.2994L80.8778 43.5433L77.2386 47.1707C78.1937 47.4486 79.1628 47.7614 80.1597 48.1019L82.809 45.4612L91.7396 54.1614L98.5021 54.217V2.32838L96.6407 0.15332H92.9109H92.9178Z" fill="white"/>
</mask>
<g mask="url(#mask1_296_8914)">
<path d="M66.928 -0.00708335L66.6621 54.2158L98.5081 54.3709L98.774 0.148043L66.928 -0.00708335Z" fill="url(#paint1_linear_296_8914)"/>
</g>
</g>
<defs>
<linearGradient id="paint0_linear_296_8914" x1="163.602" y1="38.0071" x2="234.06" y2="38.0565" gradientUnits="userSpaceOnUse">
<stop stop-color="#F99F36"/>
<stop offset="1" stop-color="#F3817D"/>
</linearGradient>
<linearGradient id="paint1_linear_296_8914" x1="81.4216" y1="-1.51019" x2="81.1488" y2="54.5014" gradientUnits="userSpaceOnUse">
<stop stop-color="#F99F32"/>
<stop offset="1" stop-color="#F3817D"/>
</linearGradient>
<clipPath id="clip0_296_8914">
<rect width="205.294" height="62.6667" fill="white"/>
</clipPath>
</defs>
</svg>
